<?xml version="1.0" encoding="UTF-8"?>
<svg xmlns="http://www.w3.org/2000/svg" xmlns:xlink="http://www.w3.org/1999/xlink" width="113.386" height="113.386" viewBox="0 0 113.386 113.386">
<path fill-rule="nonzero" fill="rgb(0%, 0%, 0%)" fill-opacity="1" d="M 113.386719 56.691406 C 113.386719 25.382812 88.003906 0 56.691406 0 C 25.382812 0 0 25.382812 0 56.691406 C 0 88.003906 25.382812 113.386719 56.691406 113.386719 C 88.003906 113.386719 113.386719 88.003906 113.386719 56.691406 Z M 113.386719 56.691406 "/>
<path fill="none" stroke-width="8.50412" stroke-linecap="butt" stroke-linejoin="miter" stroke="rgb(100%, 100%, 100%)" stroke-opacity="1" stroke-miterlimit="10" d="M 31.182 0.00159375 C 31.182 17.220344 17.221062 31.181281 -0.00159375 31.181281 C -17.220344 31.181281 -31.181281 17.220344 -31.181281 0.00159375 C -31.181281 -17.221063 -17.220344 -31.182 -0.00159375 -31.182 C 17.221062 -31.182 31.182 -17.221063 31.182 0.00159375 Z M 31.182 0.00159375 " transform="matrix(1, 0, 0, -1, 56.693, 56.693)"/>
<path fill="none" stroke-width="17.00826" stroke-linecap="butt" stroke-linejoin="miter" stroke="rgb(100%, 100%, 100%)" stroke-opacity="1" stroke-miterlimit="10" d="M 34.017937 0.00159375 L 45.353875 0.00159375 " transform="matrix(1, 0, 0, -1, 56.693, 56.693)"/>
<path fill="none" stroke-width="17.00826" stroke-linecap="butt" stroke-linejoin="miter" stroke="rgb(100%, 100%, 100%)" stroke-opacity="1" stroke-miterlimit="10" d="M 24.053094 24.052375 L 32.072625 32.071906 " transform="matrix(1, 0, 0, -1, 56.693, 56.693)"/>
<path fill="none" stroke-width="17.00826" stroke-linecap="butt" stroke-linejoin="miter" stroke="rgb(100%, 100%, 100%)" stroke-opacity="1" stroke-miterlimit="10" d="M -0.00159375 34.017219 L -0.00159375 45.353156 " transform="matrix(1, 0, 0, -1, 56.693, 56.693)"/>
<path fill="none" stroke-width="17.00826" stroke-linecap="butt" stroke-linejoin="miter" stroke="rgb(100%, 100%, 100%)" stroke-opacity="1" stroke-miterlimit="10" d="M -24.052375 24.052375 L -32.071906 32.071906 " transform="matrix(1, 0, 0, -1, 56.693, 56.693)"/>
<path fill="none" stroke-width="17.00826" stroke-linecap="butt" stroke-linejoin="miter" stroke="rgb(100%, 100%, 100%)" stroke-opacity="1" stroke-miterlimit="10" d="M -34.017219 0.00159375 L -45.353156 0.00159375 " transform="matrix(1, 0, 0, -1, 56.693, 56.693)"/>
<path fill="none" stroke-width="17.00826" stroke-linecap="butt" stroke-linejoin="miter" stroke="rgb(100%, 100%, 100%)" stroke-opacity="1" stroke-miterlimit="10" d="M -24.052375 -24.053094 L -32.071906 -32.072625 " transform="matrix(1, 0, 0, -1, 56.693, 56.693)"/>
<path fill="none" stroke-width="17.00826" stroke-linecap="butt" stroke-linejoin="miter" stroke="rgb(100%, 100%, 100%)" stroke-opacity="1" stroke-miterlimit="10" d="M -0.00159375 -34.017938 L -0.00159375 -45.353875 " transform="matrix(1, 0, 0, -1, 56.693, 56.693)"/>
<path fill="none" stroke-width="17.00826" stroke-linecap="butt" stroke-linejoin="miter" stroke="rgb(100%, 100%, 100%)" stroke-opacity="1" stroke-miterlimit="10" d="M 24.053094 -24.053094 L 32.072625 -32.072625 " transform="matrix(1, 0, 0, -1, 56.693, 56.693)"/>
</svg>
